<svg xmlns="http://www.w3.org/2000/svg" viewBox="0 0 120 120" fill="none">
  <defs>
    <filter id="s" x="-20%" y="-20%" width="140%" height="140%">
      <feDropShadow dx="0" dy="1" stdDeviation="1" flood-opacity="0.3"/>
    </filter>
  </defs>
  <g filter="url(#s)" fill="#f0d48a" stroke="#a87828" stroke-width="1.5">
    <path d="M60 12 L66 40 L94 40 L72 58 L80 86 L60 70 L40 86 L48 58 L26 40 L54 40 Z"/>
    <path d="M22 70 L25 80 L35 80 L27 87 L30 97 L22 91 L14 97 L17 87 L9 80 L19 80 Z" fill="#ffe8a8"/>
    <path d="M96 66 L98 74 L106 74 L100 79 L102 87 L96 82 L90 87 L92 79 L86 74 L94 74 Z" fill="#ffe8a8"/>
  </g>
</svg>
