<svg xmlns="http://www.w3.org/2000/svg" viewBox="0 0 480 260" role="img">
  <rect width="480" height="260" fill="#f8f0dc"/>
  <text x="240" y="22" text-anchor="middle" font-family="Georgia" font-size="13" fill="#5a3a18">Study schematic Ę T vs R relationship options</text>
  <g font-family="Georgia" font-size="12" fill="#2a1810">
    <g transform="translate(20,40)">
      <rect width="200" height="90" fill="#fff" stroke="#a87828" stroke-width="2" rx="6"/>
      <text x="8" y="16" fill="#8a2430">A</text>
      <line x1="30" y1="70" x2="170" y2="70" stroke="#5a3a18"/>
      <line x1="30" y1="70" x2="30" y2="30" stroke="#5a3a18"/>
      <path d="M40 65 Q100 20 160 35" fill="none" stroke="#3d7a4f" stroke-width="2"/>
      <text x="150" y="85" font-size="10">R Æ</text>
    </g>
    <g transform="translate(250,40)">
      <rect width="200" height="90" fill="#fff" stroke="#3d7a4f" stroke-width="3" rx="6"/>
      <text x="8" y="16" fill="#8a2430">B </text>
      <line x1="30" y1="70" x2="170" y2="70" stroke="#5a3a18"/>
      <line x1="30" y1="70" x2="30" y2="30" stroke="#5a3a18"/>
      <line x1="40" y1="65" x2="160" y2="35" stroke="#3d7a4f" stroke-width="2"/>
      <text x="80" y="55" font-size="10">linear æ</text>
    </g>
    <g transform="translate(20,145)">
      <rect width="200" height="90" fill="#fff" stroke="#a87828" stroke-width="2" rx="6"/>
      <text x="8" y="16" fill="#8a2430">C</text>
      <line x1="30" y1="70" x2="170" y2="70" stroke="#5a3a18"/>
      <line x1="30" y1="70" x2="30" y2="30" stroke="#5a3a18"/>
      <line x1="40" y1="35" x2="160" y2="65" stroke="#c45c2a" stroke-width="2"/>
    </g>
    <g transform="translate(250,145)">
      <rect width="200" height="90" fill="#fff" stroke="#a87828" stroke-width="2" rx="6"/>
      <text x="8" y="16" fill="#8a2430">D</text>
      <line x1="30" y1="70" x2="170" y2="70" stroke="#5a3a18"/>
      <line x1="30" y1="70" x2="30" y2="30" stroke="#5a3a18"/>
      <path d="M40 40 Q100 80 160 40" fill="none" stroke="#6b8cae" stroke-width="2"/>
    </g>
  </g>
</svg>
